<?xml version="1.0" encoding="UTF-8" standalone="no"?>
<!-- Created with Inkscape (http://www.inkscape.org/) -->

<svg
   xmlns:dc="http://purl.org/dc/elements/1.1/"
   xmlns:cc="http://creativecommons.org/ns#"
   xmlns:rdf="http://www.w3.org/1999/02/22-rdf-syntax-ns#"
   xmlns:svg="http://www.w3.org/2000/svg"
   xmlns="http://www.w3.org/2000/svg"
   xmlns:sodipodi="http://sodipodi.sourceforge.net/DTD/sodipodi-0.dtd"
   xmlns:inkscape="http://www.inkscape.org/namespaces/inkscape"
   width="15.118897mm"
   height="15.1189mm"
   viewBox="0 0 15.118898 15.1189"
   version="1.1"
   id="svg3719"
   sodipodi:docname="finalstateOnDiagram.svg"
   inkscape:version="0.92.3 (2405546, 2018-03-11)">
  <defs
     id="defs3713" />
  <sodipodi:namedview
     id="base"
     pagecolor="#ffffff"
     bordercolor="#666666"
     borderopacity="1.0"
     inkscape:pageopacity="0.0"
     inkscape:pageshadow="2"
     inkscape:zoom="0.35"
     inkscape:cx="-371.42885"
     inkscape:cy="-11.428737"
     inkscape:document-units="mm"
     inkscape:current-layer="layer1"
     showgrid="false"
     inkscape:window-width="1920"
     inkscape:window-height="1001"
     inkscape:window-x="2391"
     inkscape:window-y="-9"
     inkscape:window-maximized="1"
     fit-margin-top="0"
     fit-margin-left="0"
     fit-margin-right="0"
     fit-margin-bottom="0" />
  <metadata
     id="metadata3716">
    <rdf:RDF>
      <cc:Work
         rdf:about="">
        <dc:format>image/svg+xml</dc:format>
        <dc:type
           rdf:resource="http://purl.org/dc/dcmitype/StillImage" />
        <dc:title></dc:title>
      </cc:Work>
    </rdf:RDF>
  </metadata>
  <g
     inkscape:label="Ebene 1"
     inkscape:groupmode="layer"
     id="layer1"
     transform="translate(-80.131025,-117.83939)">
    <path
       style="fill:#000000;fill-opacity:1;stroke-width:0.06453203"
       d="m 87.690474,132.95829 a 7.5594674,7.5594674 0 0 1 -7.559449,-7.55945 7.5594674,7.5594674 0 0 1 7.559449,-7.55945 7.5594674,7.5594674 0 0 1 7.559448,7.55945 7.5594674,7.5594674 0 0 1 -7.559448,7.55945 z m 0,-0.73746 a 6.8219581,6.8219581 0 0 0 6.821992,-6.82199 6.8219581,6.8219581 0 0 0 -6.821992,-6.82199 6.8219581,6.8219581 0 0 0 -6.821994,6.82199 6.8219581,6.8219581 0 0 0 6.821994,6.82199 z m 0,-1.47503 a 5.3469404,5.3469404 0 0 1 -5.346958,-5.34696 5.3469404,5.3469404 0 0 1 5.346958,-5.34696 5.3469404,5.3469404 0 0 1 5.346959,5.34696 5.3469404,5.3469404 0 0 1 -5.346959,5.34696 z"
       id="path6028"
       inkscape:connector-curvature="0" />
  </g>
</svg>
