<?xml version="1.0" encoding="UTF-8" standalone="yes"?>
<!DOCTYPE svg PUBLIC "-//W3C//DTD SVG 1.1//EN" "http://www.w3.org/Graphics/SVG/1.1/DTD/svg11.dtd">

<svg width="376" height="376" viewBox="0 0 376 376" xmlns="http://www.w3.org/2000/svg" xmlns:xlink="http://www.w3.org/1999/xlink" version="1.1" baseProfile="full">
    <g transform="scale(1,-1) translate(0,-376)">
        <path d="M 376.500000 189.000000 C 376.500000 292.553385 292.553385 376.500000 189.000000 376.500000 C 85.446610 376.500000 1.500000 292.553385 1.500000 189.000000 C 1.500000 85.446610 85.446610 1.500000 189.000000 1.500000 C 292.553385 1.500000 376.500000 85.446610 376.500000 189.000000 Z" transform="scale(1.000000,1.000000) translate(-1.000000,-1.000000)" fill="#fffefe" opacity="1.000000"></path>
        <path d="M 198.648643 1.743750 L 208.170709 2.467969 L 217.554194 3.660352 L 226.787698 5.309180 L 235.858884 7.402735 L 244.756643 9.929590 L 253.468659 12.877442 L 261.983198 16.234570 L 270.288859 19.989257 L 278.373641 24.130077 L 293.832999 33.521779 L 308.267285 44.315625 L 321.582419 56.417285 L 333.684076 69.732425 L 344.477934 84.166699 L 353.869621 99.626069 L 358.010460 107.710839 L 361.765128 116.016500 L 365.122271 124.531050 L 368.070108 133.243066 L 370.596972 142.140825 L 372.690526 151.212011 L 374.339347 160.445505 L 375.531723 169.829000 L 376.255964 179.351077 L 376.500000 189.000000 L 376.255964 198.648643 L 375.531723 208.170709 L 374.339347 217.554194 L 372.690526 226.787698 L 370.596972 235.858884 L 368.070108 244.756643 L 365.122271 253.468659 L 361.765128 261.983198 L 358.010460 270.288859 L 353.869621 278.373641 L 344.477934 293.832999 L 333.684076 308.267285 L 321.582419 321.582419 L 308.267285 333.684076 L 293.832999 344.477934 L 278.373641 353.869621 L 270.288859 358.010460 L 261.983198 361.765128 L 253.468659 365.122271 L 244.756643 368.070108 L 235.858884 370.596972 L 226.787698 372.690526 L 217.554194 374.339347 L 208.170709 375.531723 L 198.648643 376.255964 L 189.000000 376.500000 L 179.351077 376.255964 L 169.829000 375.531723 L 160.445505 374.339347 L 151.212011 372.690526 L 142.140825 370.596972 L 133.243066 368.070108 L 124.531050 365.122271 L 116.016500 361.765128 L 107.710839 358.010460 L 99.626069 353.869621 L 84.166699 344.477934 L 69.732425 333.684076 L 56.417285 321.582419 L 44.315625 308.267285 L 33.521779 293.832999 L 24.130077 278.373641 L 19.989257 270.288859 L 16.234570 261.983198 L 12.877442 253.468659 L 9.929590 244.756643 L 7.402735 235.858884 L 5.309180 226.787698 L 3.660352 217.554194 L 2.467969 208.170709 L 1.743750 198.648643 L 1.500000 189.000000 L 1.743750 179.351077 L 2.467969 169.829000 L 3.660352 160.445505 L 5.309180 151.212011 L 7.402735 142.140825 L 9.929590 133.243066 L 12.877442 124.531050 L 16.234570 116.016500 L 19.989257 107.710839 L 24.130077 99.626069 L 33.521779 84.166699 L 44.315625 69.732425 L 56.417285 56.417285 L 69.732425 44.315625 L 84.166699 33.521779 L 99.626069 24.130077 L 107.710839 19.989257 L 116.016500 16.234570 L 124.531050 12.877442 L 133.243066 9.929590 L 142.140825 7.402735 L 151.212011 5.309180 L 160.445505 3.660352 L 169.829000 2.467969 L 179.351077 1.743750 L 189.000000 1.500000 Z M 180.018746 14.914746 L 171.163187 15.587989 L 162.436229 16.696875 L 153.854300 18.229394 L 145.425291 20.175000 L 137.160645 22.521679 L 129.061815 25.262109 L 121.152249 28.380761 L 113.434572 31.870018 L 106.063180 35.645214 L 91.553027 44.460646 L 78.130957 54.497461 L 65.750099 65.750099 L 54.497461 78.130957 L 44.460646 91.553027 L 35.645214 106.063180 L 31.870018 113.434572 L 28.380761 121.152249 L 25.262109 129.061815 L 22.521679 137.160645 L 20.175000 145.425291 L 18.229394 153.854300 L 16.696875 162.436229 L 15.587989 171.163187 L 14.914746 180.018746 L 14.687695 188.999709 L 14.914746 197.980952 L 15.587989 206.836533 L 16.696875 215.563480 L 18.229394 224.145409 L 20.175000 232.574408 L 22.521679 240.839054 L 25.262109 248.937894 L 28.380761 256.847461 L 31.870018 264.565137 L 35.645214 271.936518 L 44.460646 286.446688 L 54.497461 299.868752 L 65.750099 312.249605 L 78.130957 323.502254 L 91.553027 333.539058 L 106.063180 342.354496 L 113.434572 346.129683 L 121.152249 349.618946 L 129.061815 352.737595 L 137.160645 355.478030 L 145.425291 357.824717 L 153.854300 359.770302 L 162.436229 361.302827 L 171.163187 362.411720 L 180.018746 363.084954 L 189.000000 363.312003 L 197.980952 363.084954 L 206.836533 362.411720 L 215.563480 361.302827 L 224.145409 359.770302 L 232.574408 357.824717 L 240.839054 355.478030 L 248.937894 352.737595 L 256.847461 349.618946 L 264.565137 346.129683 L 271.936518 342.354496 L 286.446688 333.539058 L 299.868752 323.502254 L 312.249605 312.249605 L 323.502254 299.868752 L 333.539058 286.446688 L 342.354496 271.936518 L 346.129683 264.565137 L 349.618946 256.847461 L 352.737595 248.937894 L 355.478030 240.839054 L 357.824717 232.574408 L 359.770302 224.145409 L 361.302827 215.563480 L 362.411720 206.836533 L 363.084954 197.980952 L 363.312003 188.999709 L 363.084954 180.018746 L 362.411720 171.163187 L 361.302827 162.436229 L 359.770302 153.854300 L 357.824717 145.425291 L 355.478030 137.160645 L 352.737595 129.061815 L 349.618946 121.152249 L 346.129683 113.434572 L 342.354496 106.063180 L 333.539058 91.553027 L 323.502254 78.130957 L 312.249605 65.750099 L 299.868752 54.497461 L 286.446688 44.460646 L 271.936518 35.645214 L 264.565137 31.870018 L 256.847461 28.380761 L 248.937894 25.262109 L 240.839054 22.521679 L 232.574408 20.175000 L 224.145409 18.229394 L 215.563480 16.696875 L 206.836533 15.587989 L 197.980952 14.914746 L 189.000000 14.687695 Z" transform="scale(1.000000,1.000000) translate(-1.000000,-1.000000)" fill="#0000ff" opacity="1.000000"></path>
        <path d="M 299.601570 158.000000 C 299.601570 236.204386 236.204386 299.601570 158.000000 299.601570 C 79.795614 299.601570 16.398438 236.204386 16.398438 158.000000 C 16.398438 79.795614 79.795614 16.398438 158.000000 16.398438 C 236.204386 16.398438 299.601570 79.795614 299.601570 158.000000 Z M 314.250007 158.000000 C 314.250007 71.705507 244.294487 1.750001 158.000000 1.750001 C 71.705507 1.750001 1.750001 71.705507 1.750001 158.000000 C 1.750001 244.294487 71.705507 314.250007 158.000000 314.250007 C 244.294487 314.250007 314.250007 244.294487 314.250007 158.000000 Z" transform="scale(1.000000,1.000000) translate(30.000000,30.000000)" fill="#0000ff" opacity="1.000000"></path>
    </g>
</svg>