<?xml version="1.0" encoding="UTF-8" standalone="yes"?>
<!DOCTYPE svg PUBLIC "-//W3C//DTD SVG 1.1//EN" "http://www.w3.org/Graphics/SVG/1.1/DTD/svg11.dtd">

<svg width="128" height="128" viewBox="0 0 128 128" xmlns="http://www.w3.org/2000/svg" xmlns:xlink="http://www.w3.org/1999/xlink" version="1.1" baseProfile="full">
    <g transform="scale(1,-1) translate(0,-128)">
        <path d="M 129.000000 65.000000 C 129.000000 100.346224 100.346224 129.000000 65.000000 129.000000 C 29.653776 129.000000 1.000000 100.346224 1.000000 65.000000 C 1.000000 29.653776 29.653776 1.000000 65.000000 1.000000 C 100.346224 1.000000 129.000000 29.653776 129.000000 65.000000 Z" transform="scale(1.000000,1.000000) translate(-1.000000,-1.000000)" fill="#ffffff" opacity="1.000000"></path>
        <path d="M 68.293400 1.083200 L 71.543600 1.330400 L 74.746500 1.737400 L 77.898200 2.300200 L 80.994500 3.014800 L 84.031600 3.877300 L 87.005300 4.883500 L 89.911600 6.029400 L 92.746600 7.311000 L 95.506200 8.724400 L 100.783000 11.930100 L 105.709900 15.614400 L 110.254800 19.745100 L 114.385500 24.290000 L 118.069800 29.216900 L 121.275500 34.493700 L 122.688900 37.253300 L 123.970500 40.088300 L 125.116400 42.994600 L 126.122600 45.968300 L 126.985100 49.005400 L 127.699700 52.101700 L 128.262500 55.253400 L 128.669500 58.456300 L 128.916700 61.706500 L 129.000000 65.000000 L 128.916700 68.293400 L 128.669500 71.543600 L 128.262500 74.746500 L 127.699700 77.898200 L 126.985100 80.994500 L 126.122600 84.031600 L 125.116400 87.005300 L 123.970500 89.911600 L 122.688900 92.746600 L 121.275500 95.506200 L 118.069800 100.783000 L 114.385500 105.709900 L 110.254800 110.254800 L 105.709900 114.385500 L 100.783000 118.069800 L 95.506200 121.275500 L 92.746600 122.688900 L 89.911600 123.970500 L 87.005300 125.116400 L 84.031600 126.122600 L 80.994500 126.985100 L 77.898200 127.699700 L 74.746500 128.262500 L 71.543600 128.669500 L 68.293400 128.916700 L 65.000000 129.000000 L 61.706500 128.916700 L 58.456300 128.669500 L 55.253400 128.262500 L 52.101700 127.699700 L 49.005400 126.985100 L 45.968300 126.122600 L 42.994600 125.116400 L 40.088300 123.970500 L 37.253300 122.688900 L 34.493700 121.275500 L 29.216900 118.069800 L 24.290000 114.385500 L 19.745100 110.254800 L 15.614400 105.709900 L 11.930100 100.783000 L 8.724400 95.506200 L 7.311000 92.746600 L 6.029400 89.911600 L 4.883500 87.005300 L 3.877300 84.031600 L 3.014800 80.994500 L 2.300200 77.898200 L 1.737400 74.746500 L 1.330400 71.543600 L 1.083200 68.293400 L 1.000000 65.000000 L 1.083200 61.706500 L 1.330400 58.456300 L 1.737400 55.253400 L 2.300200 52.101700 L 3.014800 49.005400 L 3.877300 45.968300 L 4.883500 42.994600 L 6.029400 40.088300 L 7.311000 37.253300 L 8.724400 34.493700 L 11.930100 29.216900 L 15.614400 24.290000 L 19.745100 19.745100 L 24.290000 15.614400 L 29.216900 11.930100 L 34.493700 8.724400 L 37.253300 7.311000 L 40.088300 6.029400 L 42.994600 4.883500 L 45.968300 3.877300 L 49.005400 3.014800 L 52.101700 2.300200 L 55.253400 1.737400 L 58.456300 1.330400 L 61.706500 1.083200 L 65.000000 1.000000 Z M 61.934400 5.578900 L 58.911700 5.808700 L 55.932900 6.187200 L 53.003600 6.710300 L 50.126500 7.374400 L 47.305500 8.175400 L 44.541100 9.110800 L 41.841300 10.175300 L 39.207000 11.366300 L 36.690900 12.654900 L 31.738100 15.663900 L 27.156700 19.089800 L 22.930700 22.930700 L 19.089800 27.156700 L 15.663900 31.738100 L 12.654900 36.690900 L 11.366300 39.207000 L 10.175300 41.841300 L 9.110800 44.541100 L 8.175400 47.305500 L 7.374400 50.126500 L 6.710300 53.003600 L 6.187200 55.932900 L 5.808700 58.911700 L 5.578900 61.934400 L 5.501400 64.999900 L 5.578900 68.065500 L 5.808700 71.088200 L 6.187200 74.067000 L 6.710300 76.996300 L 7.374400 79.873400 L 8.175400 82.694400 L 9.110800 85.458800 L 10.175300 88.158600 L 11.366300 90.792900 L 12.654900 93.309000 L 15.663900 98.261800 L 19.089800 102.843200 L 22.930700 107.069200 L 27.156700 110.910100 L 31.738100 114.336000 L 36.690900 117.345000 L 39.207000 118.633600 L 41.841300 119.824600 L 44.541100 120.889100 L 47.305500 121.824500 L 50.126500 122.625500 L 53.003600 123.289600 L 55.932900 123.812700 L 58.911700 124.191200 L 61.934400 124.421000 L 65.000000 124.498500 L 68.065500 124.421000 L 71.088200 124.191200 L 74.067000 123.812700 L 76.996300 123.289600 L 79.873400 122.625500 L 82.694400 121.824500 L 85.458800 120.889100 L 88.158600 119.824600 L 90.792900 118.633600 L 93.309000 117.345000 L 98.261800 114.336000 L 102.843200 110.910100 L 107.069200 107.069200 L 110.910100 102.843200 L 114.336000 98.261800 L 117.345000 93.309000 L 118.633600 90.792900 L 119.824600 88.158600 L 120.889100 85.458800 L 121.824500 82.694400 L 122.625500 79.873400 L 123.289600 76.996300 L 123.812700 74.067000 L 124.191200 71.088200 L 124.421000 68.065500 L 124.498500 64.999900 L 124.421000 61.934400 L 124.191200 58.911700 L 123.812700 55.932900 L 123.289600 53.003600 L 122.625500 50.126500 L 121.824500 47.305500 L 120.889100 44.541100 L 119.824600 41.841300 L 118.633600 39.207000 L 117.345000 36.690900 L 114.336000 31.738100 L 110.910100 27.156700 L 107.069200 22.930700 L 102.843200 19.089800 L 98.261800 15.663900 L 93.309000 12.654900 L 90.792900 11.366300 L 88.158600 10.175300 L 85.458800 9.110800 L 82.694400 8.175400 L 79.873400 7.374400 L 76.996300 6.710300 L 74.067000 6.187200 L 71.088200 5.808700 L 68.065500 5.578900 L 65.000000 5.501400 Z" transform="scale(1.000000,1.000000) translate(-1.000000,-1.000000)" fill="#000000" opacity="1.000000"></path>
        <path d="M 103.333333 55.000000 C 103.333333 81.693763 81.693763 103.333333 55.000000 103.333333 C 28.306237 103.333333 6.666667 81.693763 6.666667 55.000000 C 6.666667 28.306237 28.306237 6.666667 55.000000 6.666667 C 81.693763 6.666667 103.333333 28.306237 103.333333 55.000000 Z M 108.333333 55.000000 C 108.333333 25.544813 84.455187 1.666667 55.000000 1.666667 C 25.544813 1.666667 1.666667 25.544813 1.666667 55.000000 C 1.666667 84.455187 25.544813 108.333333 55.000000 108.333333 C 84.455187 108.333333 108.333333 84.455187 108.333333 55.000000 Z" transform="scale(1.000000,1.000000) translate(9.000000,9.000000)" opacity="1.000000"></path>
    </g>
</svg>