<?xml version="1.0" encoding="UTF-8" standalone="yes"?>
<!DOCTYPE svg PUBLIC "-//W3C//DTD SVG 1.1//EN" "http://www.w3.org/Graphics/SVG/1.1/DTD/svg11.dtd">

<svg width="376" height="188" viewBox="0 0 376 188" xmlns="http://www.w3.org/2000/svg" xmlns:xlink="http://www.w3.org/1999/xlink" version="1.1" baseProfile="full">
    <g transform="scale(1,-1) translate(0,-188)">
        <path d="M 188.906256 95.000000 C 188.906256 146.621366 147.058846 188.468747 95.437501 188.468747 C 43.816132 188.468747 1.968750 146.621366 1.968750 95.000000 C 1.968750 43.378634 43.816132 1.531253 95.437501 1.531253 C 147.058846 1.531253 188.906256 43.378634 188.906256 95.000000 Z" transform="scale(1.000000,1.000000) translate(92.000000,-1.000000)" fill="#fcfbfb" opacity="1.000000"></path>
        <path d="M 100.247346 1.652761 L 104.994098 2.013784 L 109.671763 2.608187 L 114.274670 3.430127 L 118.796645 4.473765 L 123.232175 5.733402 L 127.575108 7.202906 L 131.819635 8.876434 L 135.959993 10.748147 L 139.990259 12.812347 L 147.696739 17.494107 L 154.892255 22.874843 L 161.529828 28.907516 L 167.562524 35.545114 L 172.943250 42.740598 L 177.625013 50.447096 L 179.689213 54.477358 L 181.560923 58.617730 L 183.234449 62.862229 L 184.703957 67.205162 L 185.963593 71.640699 L 187.007237 76.162689 L 187.829166 80.765588 L 188.423558 85.443261 L 188.784605 90.190012 L 188.906256 95.000000 L 188.784605 99.809852 L 188.423558 104.556603 L 187.829166 109.234269 L 187.007237 113.837168 L 185.963593 118.359151 L 184.703957 122.794681 L 183.234449 127.137628 L 181.560923 131.382127 L 179.689213 135.522499 L 177.625013 139.552765 L 172.943250 147.259245 L 167.562524 154.454746 L 161.529828 161.092334 L 154.892255 167.125001 L 147.696739 172.505755 L 139.990259 177.187490 L 135.959993 179.251704 L 131.819635 181.123414 L 127.575108 182.796941 L 123.232175 184.266448 L 118.796645 185.526085 L 114.274670 186.569729 L 109.671763 187.391658 L 104.994098 187.986064 L 100.247346 188.347096 L 95.437501 188.468747 L 90.627514 188.347096 L 85.880762 187.986064 L 81.203083 187.391658 L 76.600183 186.569729 L 72.078207 185.526085 L 67.642671 184.266448 L 63.299724 182.796941 L 59.055224 181.123414 L 54.914852 179.251704 L 50.884593 177.187490 L 43.178096 172.505755 L 35.982612 167.125001 L 29.345014 161.092334 L 23.312336 154.454746 L 17.931603 147.259245 L 13.249843 139.552765 L 11.185644 135.522499 L 9.313931 131.382127 L 7.640404 127.137628 L 6.170901 122.794681 L 4.911262 118.359151 L 3.867626 113.837168 L 3.045684 109.234269 L 2.451281 104.556603 L 2.090259 99.809852 L 1.968750 95.000000 L 2.090259 90.190012 L 2.451281 85.443261 L 3.045684 80.765588 L 3.867626 76.162689 L 4.911262 71.640699 L 6.170901 67.205162 L 7.640404 62.862229 L 9.313931 58.617730 L 11.185644 54.477358 L 13.249843 50.447096 L 17.931603 42.740598 L 23.312336 35.545114 L 29.345014 28.907516 L 35.982612 22.874843 L 43.178096 17.494107 L 50.884593 12.812347 L 54.914852 10.748147 L 59.055224 8.876434 L 63.299724 7.202906 L 67.642671 5.733402 L 72.078207 4.473765 L 76.600183 3.430127 L 81.203083 2.608187 L 85.880762 2.013784 L 90.627514 1.652761 L 95.437501 1.531253 Z M 90.960344 8.218504 L 86.545850 8.554114 L 82.195457 9.106894 L 77.917369 9.870853 L 73.715499 10.840741 L 69.595583 12.010560 L 65.558315 13.376662 L 61.615396 14.931312 L 57.768132 16.670706 L 54.093492 18.552639 L 46.860182 22.947131 L 40.169279 27.950486 L 33.997423 33.559926 L 28.387982 39.731781 L 23.384630 46.422688 L 18.990139 53.655998 L 17.108202 57.330631 L 15.368806 61.177895 L 13.814160 65.120814 L 12.448057 69.158082 L 11.278238 73.278005 L 10.308353 77.479861 L 9.544392 81.757963 L 8.991612 86.108341 L 8.656001 90.522850 L 8.542815 94.999850 L 8.656001 99.477007 L 8.991612 103.891509 L 9.544392 108.241887 L 10.308353 112.519989 L 11.278238 116.721845 L 12.448057 120.841775 L 13.814160 124.879036 L 15.368806 128.821969 L 17.108202 132.669215 L 18.990139 136.343856 L 23.384630 143.577166 L 28.387982 150.268068 L 33.997423 156.439924 L 40.169279 162.049360 L 46.860182 167.052717 L 54.093492 171.447220 L 57.768132 173.329144 L 61.615396 175.068531 L 65.558315 176.623182 L 69.595583 177.989292 L 73.715499 179.159122 L 77.917369 180.128980 L 82.195457 180.892959 L 86.545850 181.445737 L 90.960344 181.781349 L 95.437501 181.894531 L 99.914502 181.781349 L 104.329010 181.445737 L 108.679396 180.892959 L 112.957483 180.128980 L 117.159346 179.159122 L 121.279255 177.989292 L 125.316545 176.623182 L 129.259463 175.068531 L 133.106724 173.329144 L 136.781350 171.447220 L 144.014674 167.052717 L 150.705577 162.049360 L 156.877433 156.439924 L 162.486883 150.268068 L 167.490226 143.577166 L 171.884728 136.343856 L 173.766652 132.669215 L 175.506040 128.821969 L 177.060705 124.879036 L 178.426815 120.841775 L 179.596616 116.721845 L 180.566503 112.519989 L 181.330467 108.241887 L 181.883245 103.891509 L 182.218843 99.477007 L 182.332040 94.999850 L 182.218843 90.522850 L 181.883245 86.108341 L 181.330467 81.757963 L 180.566503 77.479861 L 179.596616 73.278005 L 178.426815 69.158082 L 177.060705 65.120814 L 175.506040 61.177895 L 173.766652 57.330631 L 171.884728 53.655998 L 167.490226 46.422688 L 162.486883 39.731781 L 156.877433 33.559926 L 150.705577 27.950486 L 144.014674 22.947131 L 136.781350 18.552639 L 133.106724 16.670706 L 129.259463 14.931312 L 125.316545 13.376662 L 121.279255 12.010560 L 117.159346 10.840741 L 112.957483 9.870853 L 108.679396 9.106894 L 104.329010 8.554114 L 99.914502 8.218504 L 95.437501 8.105318 Z" transform="scale(1.000000,1.000000) translate(92.000000,-1.000000)" fill="#000000" opacity="1.000000"></path>
        <path d="M 1.906250 1.312503 L 96.500000 1.312503 L 96.500000 1.125003 L 1.906250 1.125003 L 1.906250 1.312503 Z" transform="scale(1.000000,1.000000) translate(279.000000,94.000000)" fill="#fcfbfb" opacity="0.013810"></path>
        <path d="M 63.318562 17.069201 L 63.318562 1.918917 C 76.918598 8.766537 88.575772 14.635927 102.175808 21.483547 L 102.175808 21.483547 C 88.575772 28.331168 76.918598 34.200557 63.318562 41.048178 L 63.318562 25.897894 L 1.500000 25.897894 L 1.500000 17.069201 Z" transform="scale(1.000000,1.000000) translate(-1.000000,73.000000)" opacity="1.000000"></path>
    </g>
</svg>