<?xml version="1.0" encoding="UTF-8" standalone="yes"?>
<!DOCTYPE svg PUBLIC "-//W3C//DTD SVG 1.1//EN" "http://www.w3.org/Graphics/SVG/1.1/DTD/svg11.dtd">

<svg width="376" height="188" viewBox="0 0 376 188" xmlns="http://www.w3.org/2000/svg" xmlns:xlink="http://www.w3.org/1999/xlink" version="1.1" baseProfile="full">
    <g transform="scale(1,-1) translate(0,-188)">
        <path d="M 188.906250 94.999999 C 188.906250 146.621367 147.058853 188.468749 95.437500 188.468749 C 43.816132 188.468749 1.968750 146.621367 1.968750 94.999999 C 1.968750 43.378634 43.816132 1.531251 95.437500 1.531251 C 147.058853 1.531251 188.906250 43.378634 188.906250 94.999999 Z" transform="scale(1.000000,1.000000) translate(92.000000,-1.000000)" fill="#fbf9f9" opacity="1.000000"></path>
        <path d="M 100.247345 1.652759 L 104.994095 2.013782 L 109.671761 2.608185 L 114.274673 3.430125 L 118.796646 4.473763 L 123.232178 5.733400 L 127.575111 7.202905 L 131.819641 8.876433 L 135.959991 10.748146 L 139.990265 12.812346 L 147.696732 17.494105 L 154.892258 22.874842 L 161.529831 28.907515 L 167.562531 35.545111 L 172.943253 42.740595 L 177.625015 50.447096 L 179.689209 54.477358 L 181.560928 58.617728 L 183.234451 62.862227 L 184.703964 67.205161 L 185.963593 71.640700 L 187.007233 76.162688 L 187.829163 80.765585 L 188.423553 85.443259 L 188.784607 90.190009 L 188.906250 94.999999 L 188.784607 99.809851 L 188.423553 104.556601 L 187.829163 109.234267 L 187.007233 113.837164 L 185.963593 118.359152 L 184.703964 122.794676 L 183.234451 127.137625 L 181.560928 131.382124 L 179.689209 135.522490 L 177.625015 139.552763 L 172.943253 147.259245 L 167.562531 154.454741 L 161.529831 161.092329 L 154.892258 167.124999 L 147.696732 172.505751 L 139.990265 177.187483 L 135.959991 179.251707 L 131.819641 181.123412 L 127.575111 182.796935 L 123.232178 184.266447 L 118.796646 185.526091 L 114.274673 186.569731 L 109.671761 187.391661 L 104.994095 187.986067 L 100.247345 188.347090 L 95.437500 188.468749 L 90.627518 188.347090 L 85.880760 187.986067 L 81.203079 187.391661 L 76.600182 186.569731 L 72.078209 185.526091 L 67.642670 184.266447 L 63.299725 182.796935 L 59.055225 181.123412 L 54.914852 179.251707 L 50.884594 177.187483 L 43.178097 172.505751 L 35.982613 167.124999 L 29.345015 161.092329 L 23.312336 154.454741 L 17.931602 147.259245 L 13.249843 139.552763 L 11.185644 135.522490 L 9.313931 131.382124 L 7.640404 127.137625 L 6.170901 122.794676 L 4.911262 118.359152 L 3.867626 113.837164 L 3.045684 109.234267 L 2.451281 104.556601 L 2.090259 99.809851 L 1.968750 94.999999 L 2.090259 90.190009 L 2.451281 85.443259 L 3.045684 80.765585 L 3.867626 76.162688 L 4.911262 71.640700 L 6.170901 67.205161 L 7.640404 62.862227 L 9.313931 58.617728 L 11.185644 54.477358 L 13.249843 50.447096 L 17.931602 42.740595 L 23.312336 35.545111 L 29.345015 28.907515 L 35.982613 22.874842 L 43.178097 17.494105 L 50.884594 12.812346 L 54.914852 10.748146 L 59.055225 8.876433 L 63.299725 7.202905 L 67.642670 5.733400 L 72.078209 4.473763 L 76.600182 3.430125 L 81.203079 2.608185 L 85.880760 2.013782 L 90.627518 1.652759 L 95.437500 1.531251 Z M 90.960342 8.218502 L 86.545853 8.554113 L 82.195457 9.106892 L 77.917366 9.870852 L 73.715500 10.840740 L 69.595581 12.010559 L 65.558311 13.376661 L 61.615395 14.931310 L 57.768131 16.670704 L 54.093491 18.552638 L 46.860184 22.947129 L 40.169277 27.950484 L 33.997421 33.559924 L 28.387981 39.731780 L 23.384630 46.422686 L 18.990139 53.655997 L 17.108202 57.330630 L 15.368806 61.177893 L 13.814160 65.120810 L 12.448057 69.158080 L 11.278238 73.278006 L 10.308353 77.479857 L 9.544392 81.757964 L 8.991612 86.108336 L 8.656001 90.522849 L 8.542815 94.999846 L 8.656001 99.477004 L 8.991612 103.891509 L 9.544392 108.241888 L 10.308353 112.519988 L 11.278238 116.721846 L 12.448057 120.841772 L 13.814160 124.879034 L 15.368806 128.821974 L 17.108202 132.669218 L 18.990139 136.343855 L 23.384630 143.577162 L 28.387981 150.268065 L 33.997421 156.439925 L 40.169277 162.049361 L 46.860184 167.052718 L 54.093491 171.447218 L 57.768131 173.329146 L 61.615395 175.068526 L 65.558311 176.623183 L 69.595581 177.989287 L 73.715500 179.159117 L 77.917366 180.128981 L 82.195457 180.892958 L 86.545853 181.445738 L 90.960342 181.781340 L 95.437500 181.894530 L 99.914505 181.781340 L 104.329010 181.445738 L 108.679398 180.892958 L 112.957481 180.128981 L 117.159348 179.159117 L 121.279259 177.989287 L 125.316544 176.623183 L 129.259460 175.068526 L 133.106720 173.329146 L 136.781357 171.447218 L 144.014679 167.052718 L 150.705582 162.049361 L 156.877426 156.439925 L 162.486877 150.268065 L 167.490219 143.577162 L 171.884735 136.343855 L 173.766647 132.669218 L 175.506042 128.821974 L 177.060699 124.879034 L 178.426819 120.841772 L 179.596619 116.721846 L 180.566498 112.519988 L 181.330460 108.241888 L 181.883240 103.891509 L 182.218842 99.477004 L 182.332047 94.999846 L 182.218842 90.522849 L 181.883240 86.108336 L 181.330460 81.757964 L 180.566498 77.479857 L 179.596619 73.278006 L 178.426819 69.158080 L 177.060699 65.120810 L 175.506042 61.177893 L 173.766647 57.330630 L 171.884735 53.655997 L 167.490219 46.422686 L 162.486877 39.731780 L 156.877426 33.559924 L 150.705582 27.950484 L 144.014679 22.947129 L 136.781357 18.552638 L 133.106720 16.670704 L 129.259460 14.931310 L 125.316544 13.376661 L 121.279259 12.010559 L 117.159348 10.840740 L 112.957481 9.870852 L 108.679398 9.106892 L 104.329010 8.554113 L 99.914505 8.218502 L 95.437500 8.105317 Z" transform="scale(1.000000,1.000000) translate(92.000000,-1.000000)" fill="#0000ff" opacity="1.000000"></path>
        <path d="M 1.906250 1.312501 L 96.500000 1.312501 L 96.500000 1.125001 L 1.906250 1.125001 L 1.906250 1.312501 Z" transform="scale(1.000000,1.000000) translate(279.000000,94.000000)" fill="#fbf9f9" opacity="0.013810"></path>
        <path d="M 63.318562 17.069199 L 63.318562 1.918915 C 76.918594 8.766535 88.575775 14.635926 102.175812 21.483546 L 102.175812 21.483546 C 88.575775 28.331166 76.918594 34.200556 63.318562 41.048178 L 63.318562 25.897892 L 1.500000 25.897892 L 1.500000 17.069199 Z" transform="scale(1.000000,1.000000) translate(-1.000000,73.000000)" fill="#0000ff" opacity="1.000000"></path>
    </g>
</svg>